<svg id="visual" viewBox="0 0 900 600" width="900" height="600" xmlns="http://www.w3.org/2000/svg" xmlns:xlink="http://www.w3.org/1999/xlink" version="1.1"><path d="M0 37L16.7 35C33.3 33 66.7 29 100 31C133.3 33 166.7 41 200 41C233.3 41 266.7 33 300 33C333.3 33 366.7 41 400 40C433.3 39 466.7 29 500 28C533.3 27 566.7 35 600 38C633.3 41 666.7 39 700 39C733.3 39 766.7 41 800 43C833.3 45 866.7 47 883.3 48L900 49L900 0L883.3 0C866.7 0 833.3 0 800 0C766.7 0 733.3 0 700 0C666.7 0 633.3 0 600 0C566.7 0 533.3 0 500 0C466.7 0 433.3 0 400 0C366.7 0 333.3 0 300 0C266.7 0 233.3 0 200 0C166.7 0 133.3 0 100 0C66.7 0 33.3 0 16.7 0L0 0Z" fill="#b5f4ac"></path><path d="M0 73L16.7 70C33.3 67 66.7 61 100 63C133.3 65 166.7 75 200 73C233.3 71 266.7 57 300 55C333.3 53 366.7 63 400 63C433.3 63 466.7 53 500 52C533.3 51 566.7 59 600 64C633.3 69 666.7 71 700 71C733.3 71 766.7 69 800 69C833.3 69 866.7 71 883.3 72L900 73L900 47L883.3 46C866.7 45 833.3 43 800 41C766.7 39 733.3 37 700 37C666.7 37 633.3 39 600 36C566.7 33 533.3 25 500 26C466.7 27 433.3 37 400 38C366.7 39 333.3 31 300 31C266.7 31 233.3 39 200 39C166.7 39 133.3 31 100 29C66.7 27 33.3 31 16.7 33L0 35Z" fill="#aff3a5"></path><path d="M0 133L16.7 130C33.3 127 66.7 121 100 122C133.3 123 166.7 131 200 127C233.3 123 266.7 107 300 101C333.3 95 366.7 99 400 101C433.3 103 466.7 103 500 108C533.3 113 566.7 123 600 124C633.3 125 666.7 117 700 117C733.3 117 766.7 125 800 131C833.3 137 866.7 141 883.3 143L900 145L900 71L883.3 70C866.7 69 833.3 67 800 67C766.7 67 733.3 69 700 69C666.7 69 633.3 67 600 62C566.7 57 533.3 49 500 50C466.7 51 433.3 61 400 61C366.7 61 333.3 51 300 53C266.7 55 233.3 69 200 71C166.7 73 133.3 63 100 61C66.7 59 33.3 65 16.7 68L0 71Z" fill="#a8f29e"></path><path d="M0 151L16.7 150C33.3 149 66.7 147 100 150C133.3 153 166.7 161 200 155C233.3 149 266.7 129 300 122C333.3 115 366.7 121 400 124C433.3 127 466.7 127 500 131C533.3 135 566.7 143 600 144C633.3 145 666.7 139 700 141C733.3 143 766.7 153 800 160C833.3 167 866.7 171 883.3 173L900 175L900 143L883.3 141C866.7 139 833.3 135 800 129C766.7 123 733.3 115 700 115C666.7 115 633.3 123 600 122C566.7 121 533.3 111 500 106C466.7 101 433.3 101 400 99C366.7 97 333.3 93 300 99C266.7 105 233.3 121 200 125C166.7 129 133.3 121 100 120C66.7 119 33.3 125 16.7 128L0 131Z" fill="#a1f197"></path><path d="M0 175L16.7 177C33.3 179 66.7 183 100 188C133.3 193 166.7 199 200 195C233.3 191 266.7 177 300 170C333.3 163 366.7 163 400 161C433.3 159 466.7 155 500 158C533.3 161 566.7 171 600 174C633.3 177 666.7 173 700 178C733.3 183 766.7 197 800 206C833.3 215 866.7 219 883.3 221L900 223L900 173L883.3 171C866.7 169 833.3 165 800 158C766.7 151 733.3 141 700 139C666.7 137 633.3 143 600 142C566.7 141 533.3 133 500 129C466.7 125 433.3 125 400 122C366.7 119 333.3 113 300 120C266.7 127 233.3 147 200 153C166.7 159 133.3 151 100 148C66.7 145 33.3 147 16.7 148L0 149Z" fill="#9bf090"></path><path d="M0 247L16.7 254C33.3 261 66.7 275 100 276C133.3 277 166.7 265 200 258C233.3 251 266.7 249 300 242C333.3 235 366.7 223 400 218C433.3 213 466.7 215 500 224C533.3 233 566.7 249 600 255C633.3 261 666.7 257 700 261C733.3 265 766.7 277 800 286C833.3 295 866.7 301 883.3 304L900 307L900 221L883.3 219C866.7 217 833.3 213 800 204C766.7 195 733.3 181 700 176C666.7 171 633.3 175 600 172C566.7 169 533.3 159 500 156C466.7 153 433.3 157 400 159C366.7 161 333.3 161 300 168C266.7 175 233.3 189 200 193C166.7 197 133.3 191 100 186C66.7 181 33.3 177 16.7 175L0 173Z" fill="#94ef8a"></path><path d="M0 277L16.7 284C33.3 291 66.7 305 100 306C133.3 307 166.7 295 200 288C233.3 281 266.7 279 300 270C333.3 261 366.7 245 400 239C433.3 233 466.7 237 500 248C533.3 259 566.7 277 600 281C633.3 285 666.7 275 700 279C733.3 283 766.7 301 800 311C833.3 321 866.7 323 883.3 324L900 325L900 305L883.3 302C866.7 299 833.3 293 800 284C766.7 275 733.3 263 700 259C666.7 255 633.3 259 600 253C566.7 247 533.3 231 500 222C466.7 213 433.3 211 400 216C366.7 221 333.3 233 300 240C266.7 247 233.3 249 200 256C166.7 263 133.3 275 100 274C66.7 273 33.3 259 16.7 252L0 245Z" fill="#8dec83"></path><path d="M0 295L16.7 301C33.3 307 66.7 319 100 319C133.3 319 166.7 307 200 303C233.3 299 266.7 303 300 296C333.3 289 366.7 271 400 265C433.3 259 466.7 265 500 274C533.3 283 566.7 295 600 298C633.3 301 666.7 295 700 301C733.3 307 766.7 325 800 334C833.3 343 866.7 343 883.3 343L900 343L900 323L883.3 322C866.7 321 833.3 319 800 309C766.7 299 733.3 281 700 277C666.7 273 633.3 283 600 279C566.7 275 533.3 257 500 246C466.7 235 433.3 231 400 237C366.7 243 333.3 259 300 268C266.7 277 233.3 279 200 286C166.7 293 133.3 305 100 304C66.7 303 33.3 289 16.7 282L0 275Z" fill="#87e77d"></path><path d="M0 349L16.7 352C33.3 355 66.7 361 100 360C133.3 359 166.7 351 200 345C233.3 339 266.7 335 300 330C333.3 325 366.7 319 400 320C433.3 321 466.7 329 500 334C533.3 339 566.7 341 600 339C633.3 337 666.7 331 700 340C733.3 349 766.7 373 800 381C833.3 389 866.7 381 883.3 377L900 373L900 341L883.3 341C866.7 341 833.3 341 800 332C766.7 323 733.3 305 700 299C666.7 293 633.3 299 600 296C566.7 293 533.3 281 500 272C466.7 263 433.3 257 400 263C366.7 269 333.3 287 300 294C266.7 301 233.3 297 200 301C166.7 305 133.3 317 100 317C66.7 317 33.3 305 16.7 299L0 293Z" fill="#82e377"></path><path d="M0 433L16.7 443C33.3 453 66.7 473 100 484C133.3 495 166.7 497 200 490C233.3 483 266.7 467 300 463C333.3 459 366.7 467 400 471C433.3 475 466.7 475 500 471C533.3 467 566.7 459 600 455C633.3 451 666.7 451 700 457C733.3 463 766.7 475 800 474C833.3 473 866.7 459 883.3 452L900 445L900 371L883.3 375C866.7 379 833.3 387 800 379C766.7 371 733.3 347 700 338C666.7 329 633.3 335 600 337C566.7 339 533.3 337 500 332C466.7 327 433.3 319 400 318C366.7 317 333.3 323 300 328C266.7 333 233.3 337 200 343C166.7 349 133.3 357 100 358C66.7 359 33.3 353 16.7 350L0 347Z" fill="#7cde70"></path><path d="M0 571L16.7 573C33.3 575 66.7 579 100 580C133.3 581 166.7 579 200 576C233.3 573 266.7 569 300 567C333.3 565 366.7 565 400 567C433.3 569 466.7 573 500 573C533.3 573 566.7 569 600 568C633.3 567 666.7 569 700 572C733.3 575 766.7 579 800 578C833.3 577 866.7 571 883.3 568L900 565L900 443L883.3 450C866.7 457 833.3 471 800 472C766.7 473 733.3 461 700 455C666.7 449 633.3 449 600 453C566.7 457 533.3 465 500 469C466.7 473 433.3 473 400 469C366.7 465 333.3 457 300 461C266.7 465 233.3 481 200 488C166.7 495 133.3 493 100 482C66.7 471 33.3 451 16.7 441L0 431Z" fill="#76da6a"></path><path d="M0 601L16.7 601C33.3 601 66.7 601 100 601C133.3 601 166.7 601 200 601C233.3 601 266.7 601 300 601C333.3 601 366.7 601 400 601C433.3 601 466.7 601 500 601C533.3 601 566.7 601 600 601C633.3 601 666.7 601 700 601C733.3 601 766.7 601 800 601C833.3 601 866.7 601 883.3 601L900 601L900 563L883.3 566C866.7 569 833.3 575 800 576C766.7 577 733.3 573 700 570C666.7 567 633.3 565 600 566C566.7 567 533.3 571 500 571C466.7 571 433.3 567 400 565C366.7 563 333.3 563 300 565C266.7 567 233.3 571 200 574C166.7 577 133.3 579 100 578C66.7 577 33.3 573 16.7 571L0 569Z" fill="#70d564"></path></svg>